# xmcd
#
# Track frame offsets:
#	150
#	19462
#	39637
#	56517
#
# Disc length: 904 seconds
#
# Revision: 1
# Processed by: cddbd v1.5.1PL0 Copyright (c) Steve Scherf et al.
# Submitted via: CDex 1.50Beta5
#
DISCID=30038604
DTITLE=CHOCOLAT - CLOUDY
DYEAR=1900
DGENRE=Pop
TTITLE0=鏡の夜
TTITLE1=届かない
TTITLE2='Till Tomorrow
TTITLE3=遠い彼方
EXTD=
EXTT0=
EXTT1=
EXTT2=
EXTT3=
PLAYORDER=
